<?xml version="1.0" standalone="no"?>
<!DOCTYPE svg PUBLIC "-//W3C//DTD SVG 20010904//EN"
 "http://www.w3.org/TR/2001/REC-SVG-20010904/DTD/svg10.dtd">
<svg version="1.0" xmlns="http://www.w3.org/2000/svg"
 width="474.000000pt" height="248.000000pt" viewBox="0 0 474.000000 248.000000"
 preserveAspectRatio="xMidYMid meet">

<g transform="translate(0.000000,248.000000) scale(0.100000,-0.100000)"
fill="#000000" stroke="none">
<path d="M3175 2024 c-154 -75 -352 -171 -440 -213 -88 -43 -466 -225 -840
-406 -374 -181 -690 -337 -703 -348 -27 -25 -30 -77 -4 -99 9 -9 85 -33 167
-54 l151 -38 164 98 c400 240 1013 621 1639 1020 57 36 112 66 122 66 10 0 25
-10 33 -22 22 -30 10 -47 -129 -190 -287 -294 -1137 -1192 -1143 -1207 -7 -18
165 -81 498 -182 349 -105 366 -109 396 -96 l30 15 227 833 c125 459 227 848
227 866 0 43 -36 82 -80 89 -30 4 -75 -15 -315 -132z"/>
<path d="M2950 1644 c-74 -48 -209 -134 -300 -192 -327 -209 -1020 -671 -1020
-681 0 -8 188 -355 222 -410 16 -27 62 -45 92 -37 22 5 187 138 194 155 1 4
-25 20 -59 36 -65 32 -79 48 -79 92 0 24 84 112 547 575 302 302 546 548 543
548 -3 0 -66 -39 -140 -86z"/>
</g>
</svg>
